<svg id="visual" viewBox="0 0 1080 440" width="1080" height="440" xmlns="http://www.w3.org/2000/svg" xmlns:xlink="http://www.w3.org/1999/xlink" version="1.1"><path d="M0 49L36 70.3C72 91.7 144 134.3 216 150.5C288 166.7 360 156.3 432 140.2C504 124 576 102 648 87.3C720 72.7 792 65.3 864 79.3C936 93.3 1008 128.7 1044 146.3L1080 164L1080 0L1044 0C1008 0 936 0 864 0C792 0 720 0 648 0C576 0 504 0 432 0C360 0 288 0 216 0C144 0 72 0 36 0L0 0Z" fill="#d9fbfc"></path><path d="M0 199L36 227.7C72 256.3 144 313.7 216 321.7C288 329.7 360 288.3 432 255.3C504 222.3 576 197.7 648 187.5C720 177.3 792 181.7 864 197C936 212.3 1008 238.7 1044 251.8L1080 265L1080 162L1044 144.3C1008 126.7 936 91.3 864 77.3C792 63.3 720 70.7 648 85.3C576 100 504 122 432 138.2C360 154.3 288 164.7 216 148.5C144 132.3 72 89.7 36 68.3L0 47Z" fill="#97e0e3"></path><path d="M0 441L36 441C72 441 144 441 216 441C288 441 360 441 432 441C504 441 576 441 648 441C720 441 792 441 864 441C936 441 1008 441 1044 441L1080 441L1080 263L1044 249.8C1008 236.7 936 210.3 864 195C792 179.7 720 175.3 648 185.5C576 195.7 504 220.3 432 253.3C360 286.3 288 327.7 216 319.7C144 311.7 72 254.3 36 225.7L0 197Z" fill="#42c5cc"></path></svg>