<svg id="visual" viewBox="0 0 540 960" width="540" height="960" xmlns="http://www.w3.org/2000/svg" xmlns:xlink="http://www.w3.org/1999/xlink" version="1.1"><path d="M0 87L15 106.3C30 125.7 60 164.3 90 166C120 167.7 150 132.3 180 106.7C210 81 240 65 270 63.3C300 61.7 330 74.3 360 71.2C390 68 420 49 450 69.8C480 90.7 510 151.3 525 181.7L540 212L540 0L525 0C510 0 480 0 450 0C420 0 390 0 360 0C330 0 300 0 270 0C240 0 210 0 180 0C150 0 120 0 90 0C60 0 30 0 15 0L0 0Z" fill="#aaf6f8"></path><path d="M0 299L15 331C30 363 60 427 90 407.7C120 388.3 150 285.7 180 236C210 186.3 240 189.7 270 183.3C300 177 330 161 360 178.7C390 196.3 420 247.7 450 258.8C480 270 510 241 525 226.5L540 212L540 210L525 179.7C510 149.3 480 88.7 450 67.8C420 47 390 66 360 69.2C330 72.3 300 59.7 270 61.3C240 63 210 79 180 104.7C150 130.3 120 165.7 90 164C60 162.3 30 123.7 15 104.3L0 85Z" fill="#98f4f7"></path><path d="M0 510L15 513.2C30 516.3 60 522.7 90 519.5C120 516.3 150 503.7 180 495.7C210 487.7 240 484.3 270 433C300 381.7 330 282.3 360 300C390 317.7 420 452.3 450 505.2C480 558 510 529 525 514.5L540 500L540 210L525 224.5C510 239 480 268 450 256.8C420 245.7 390 194.3 360 176.7C330 159 300 175 270 181.3C240 187.7 210 184.3 180 234C150 283.7 120 386.3 90 405.7C60 425 30 361 15 329L0 297Z" fill="#83f2f6"></path><path d="M0 567L15 571.8C30 576.7 60 586.3 90 602.3C120 618.3 150 640.7 180 635.8C210 631 240 599 270 541.5C300 484 330 401 360 410.7C390 420.3 420 522.7 450 561C480 599.3 510 573.7 525 560.8L540 548L540 498L525 512.5C510 527 480 556 450 503.2C420 450.3 390 315.7 360 298C330 280.3 300 379.7 270 431C240 482.3 210 485.7 180 493.7C150 501.7 120 514.3 90 517.5C60 520.7 30 514.3 15 511.2L0 508Z" fill="#72ecf1"></path><path d="M0 807L15 832.7C30 858.3 60 909.7 90 913C120 916.3 150 871.7 180 860.5C210 849.3 240 871.7 270 876.3C300 881 330 868 360 860C390 852 420 849 450 852.3C480 855.7 510 865.3 525 870.2L540 875L540 546L525 558.8C510 571.7 480 597.3 450 559C420 520.7 390 418.3 360 408.7C330 399 300 482 270 539.5C240 597 210 629 180 633.8C150 638.7 120 616.3 90 600.3C60 584.3 30 574.7 15 569.8L0 565Z" fill="#67e1e7"></path><path d="M0 961L15 961C30 961 60 961 90 961C120 961 150 961 180 961C210 961 240 961 270 961C300 961 330 961 360 961C390 961 420 961 450 961C480 961 510 961 525 961L540 961L540 873L525 868.2C510 863.3 480 853.7 450 850.3C420 847 390 850 360 858C330 866 300 879 270 874.3C240 869.7 210 847.3 180 858.5C150 869.7 120 914.3 90 911C60 907.7 30 856.3 15 830.7L0 805Z" fill="#5cd7dd"></path></svg>