<svg id="visual" viewBox="0 0 900 600" width="900" height="600" xmlns="http://www.w3.org/2000/svg" xmlns:xlink="http://www.w3.org/1999/xlink" version="1.1"><path d="M0 235L37.5 232C75 229 150 223 225 203C300 183 375 149 450 127C525 105 600 95 675 104C750 113 825 141 862.5 155L900 169L900 0L862.5 0C825 0 750 0 675 0C600 0 525 0 450 0C375 0 300 0 225 0C150 0 75 0 37.5 0L0 0Z" fill="#dbfbfc"></path><path d="M0 289L37.5 296C75 303 150 317 225 307C300 297 375 263 450 247C525 231 600 233 675 235C750 237 825 239 862.5 240L900 241L900 167L862.5 153C825 139 750 111 675 102C600 93 525 103 450 125C375 147 300 181 225 201C150 221 75 227 37.5 230L0 233Z" fill="#d2fafb"></path><path d="M0 397L37.5 401C75 405 150 413 225 398C300 383 375 345 450 329C525 313 600 319 675 318C750 317 825 309 862.5 305L900 301L900 239L862.5 238C825 237 750 235 675 233C600 231 525 229 450 245C375 261 300 295 225 305C150 315 75 301 37.5 294L0 287Z" fill="#c9f9fa"></path><path d="M0 553L37.5 556C75 559 150 565 225 564C300 563 375 555 450 548C525 541 600 535 675 521C750 507 825 485 862.5 474L900 463L900 299L862.5 303C825 307 750 315 675 316C600 317 525 311 450 327C375 343 300 381 225 396C150 411 75 403 37.5 399L0 395Z" fill="#bdf8f9"></path><path d="M0 601L37.5 601C75 601 150 601 225 601C300 601 375 601 450 601C525 601 600 601 675 601C750 601 825 601 862.5 601L900 601L900 461L862.5 472C825 483 750 505 675 519C600 533 525 539 450 546C375 553 300 561 225 562C150 563 75 557 37.5 554L0 551Z" fill="#b1f6f8"></path></svg>